<?xml version="1.0" encoding="utf-8"?>
<svg viewBox="88.027 64.422 48 48" xmlns="http://www.w3.org/2000/svg">
  <rect opacity="0.1" x="88.027" width="48" height="48" rx="24" fill="white" y="64.422"/>
  <path d="M 118.652 83.73 C 118.652 83.539 118.57 83.375 118.434 83.238 C 118.297 83.129 118.133 83.047 117.969 83.047 L 107.086 83.047 C 106.867 83.047 106.703 83.129 106.594 83.238 C 106.457 83.375 106.402 83.539 106.402 83.73 L 106.402 94.613 C 106.402 94.804 106.457 94.968 106.594 95.105 C 106.703 95.242 106.867 95.297 107.086 95.297 L 112.938 95.297 L 112.938 90.539 L 111.352 90.539 L 111.352 88.707 L 112.938 88.707 L 112.938 87.34 C 112.938 86.574 113.156 85.972 113.594 85.535 C 114.031 85.125 114.606 84.906 115.317 84.906 C 115.863 84.906 116.356 84.933 116.738 84.961 L 116.738 86.629 L 115.754 86.629 C 115.399 86.629 115.152 86.711 115.016 86.875 C 114.906 87.011 114.852 87.23 114.852 87.531 L 114.852 88.707 L 116.684 88.707 L 116.438 90.539 L 114.852 90.539 L 114.852 95.297 L 117.969 95.297 C 118.16 95.297 118.324 95.242 118.461 95.105 C 118.57 94.968 118.652 94.804 118.652 94.613 L 118.652 83.73 Z" fill="white"/>
</svg>