<?xml version="1.0" encoding="utf-8"?>
<svg viewBox="209.585 64.422 48 48" xmlns="http://www.w3.org/2000/svg">
  <rect opacity="0.1" x="209.585" width="48" height="48" rx="24" fill="white" y="64.422"/>
  <path d="M 232.343 93.027 C 232.343 93.027 232.315 93 232.288 92.972 C 232.261 92.972 232.233 92.945 232.179 92.945 C 232.069 92.945 232.042 93 232.042 93.054 C 232.042 93.136 232.069 93.164 232.179 93.164 C 232.288 93.164 232.343 93.109 232.343 93.027 Z M 231.495 92.918 C 231.495 92.863 231.55 92.836 231.659 92.863 C 231.741 92.89 231.769 92.918 231.769 92.972 C 231.769 93.027 231.741 93.054 231.714 93.054 C 231.659 93.082 231.632 93.082 231.605 93.054 C 231.55 93.054 231.523 93.027 231.495 93 C 231.468 92.972 231.468 92.945 231.495 92.918 Z M 232.698 92.863 C 232.78 92.863 232.835 92.89 232.835 92.945 C 232.835 93 232.808 93.054 232.726 93.082 C 232.671 93.082 232.644 93.082 232.616 93.082 C 232.589 93.082 232.562 93.027 232.562 92.972 C 232.562 92.918 232.589 92.89 232.698 92.863 Z M 234.503 82.39 C 235.733 82.39 236.882 82.691 237.948 83.265 C 238.987 83.867 239.835 84.66 240.437 85.644 C 241.038 86.683 241.366 87.832 241.366 89.062 C 241.366 90.593 240.929 91.933 240.081 93.136 C 239.233 94.34 238.14 95.16 236.773 95.597 C 236.608 95.652 236.499 95.625 236.417 95.543 C 236.335 95.488 236.308 95.379 236.308 95.269 L 236.308 92.972 C 236.308 92.398 236.144 91.988 235.843 91.715 C 236.499 91.66 237.019 91.55 237.347 91.441 C 237.839 91.277 238.249 91.004 238.523 90.621 C 238.823 90.156 238.987 89.5 238.987 88.679 C 238.987 88.351 238.905 88.05 238.796 87.777 C 238.687 87.613 238.523 87.367 238.276 87.093 C 238.331 86.929 238.386 86.711 238.413 86.437 C 238.413 86.054 238.358 85.644 238.222 85.234 C 238.03 85.179 237.784 85.234 237.456 85.343 C 237.237 85.453 236.964 85.562 236.69 85.726 L 236.335 85.972 C 235.761 85.808 235.187 85.726 234.585 85.726 C 233.983 85.726 233.437 85.808 232.89 85.972 L 232.534 85.726 C 232.233 85.562 231.96 85.453 231.741 85.343 C 231.413 85.234 231.167 85.179 231.003 85.234 C 230.839 85.644 230.757 86.054 230.812 86.437 C 230.812 86.711 230.839 86.902 230.921 87.066 C 230.702 87.34 230.538 87.613 230.429 87.832 C 230.319 88.05 230.292 88.351 230.292 88.679 C 230.292 89.5 230.429 90.156 230.73 90.593 C 230.976 90.976 231.358 91.277 231.878 91.441 C 232.206 91.55 232.698 91.66 233.355 91.715 C 233.108 91.933 232.972 92.261 232.917 92.644 C 232.589 92.808 232.288 92.863 232.015 92.808 C 231.523 92.781 231.167 92.535 230.921 92.07 C 230.812 91.879 230.647 91.715 230.483 91.578 C 230.347 91.523 230.21 91.441 230.073 91.386 L 229.882 91.359 C 229.663 91.359 229.554 91.414 229.554 91.468 C 229.554 91.523 229.581 91.605 229.69 91.66 L 229.827 91.769 C 229.937 91.851 230.073 91.961 230.21 92.125 C 230.319 92.261 230.401 92.398 230.483 92.562 L 230.593 92.781 C 230.675 93.054 230.839 93.273 231.112 93.41 C 231.331 93.547 231.577 93.629 231.905 93.656 C 232.124 93.683 232.343 93.683 232.589 93.629 L 232.89 93.601 L 232.917 95.269 C 232.917 95.379 232.862 95.488 232.78 95.543 C 232.698 95.625 232.589 95.652 232.452 95.597 C 231.058 95.16 229.937 94.34 229.089 93.136 C 228.214 91.933 227.804 90.593 227.804 89.062 C 227.804 87.832 228.077 86.711 228.679 85.672 C 229.253 84.66 230.046 83.867 231.085 83.265 C 232.097 82.691 233.245 82.39 234.503 82.39 Z M 230.456 91.824 C 230.483 91.797 230.538 91.797 230.593 91.851 C 230.647 91.906 230.647 91.961 230.62 91.988 C 230.565 92.043 230.538 92.015 230.483 91.961 C 230.429 91.906 230.401 91.879 230.456 91.824 Z M 230.155 91.605 C 230.183 91.578 230.237 91.578 230.292 91.605 C 230.347 91.632 230.347 91.66 230.347 91.715 C 230.319 91.769 230.265 91.769 230.21 91.715 C 230.155 91.687 230.128 91.66 230.155 91.605 Z M 231.058 92.562 C 231.058 92.562 231.085 92.562 231.14 92.562 C 231.167 92.562 231.194 92.59 231.222 92.617 C 231.249 92.644 231.276 92.672 231.276 92.699 C 231.276 92.754 231.276 92.781 231.276 92.781 C 231.222 92.836 231.14 92.836 231.085 92.754 C 231.03 92.726 231.03 92.699 231.03 92.644 C 231.03 92.617 231.03 92.59 231.058 92.562 Z M 230.73 92.179 C 230.757 92.179 230.784 92.179 230.812 92.179 C 230.839 92.179 230.866 92.207 230.894 92.234 C 230.948 92.316 230.948 92.371 230.894 92.398 C 230.866 92.425 230.839 92.425 230.812 92.398 C 230.784 92.398 230.757 92.371 230.73 92.343 C 230.675 92.261 230.675 92.207 230.73 92.179 Z" fill="white"/>
</svg>