<?xml version="1.0" encoding="utf-8"?>
<svg viewBox="113.751 120.485 48 48" xmlns="http://www.w3.org/2000/svg">
  <rect opacity="0.1" x="113.751" width="48" height="48" rx="24" fill="white" y="120.485"/>
  <path d="M 138.251 142.091 C 138.798 142.091 139.317 142.255 139.81 142.528 C 140.302 142.802 140.685 143.185 140.958 143.677 C 141.231 144.169 141.396 144.689 141.396 145.235 C 141.396 145.81 141.231 146.329 140.958 146.821 C 140.685 147.314 140.302 147.696 139.81 147.97 C 139.317 148.243 138.798 148.38 138.251 148.38 C 137.677 148.38 137.157 148.243 136.665 147.97 C 136.173 147.696 135.79 147.314 135.517 146.821 C 135.243 146.329 135.106 145.81 135.106 145.235 C 135.106 144.689 135.243 144.169 135.517 143.677 C 135.79 143.185 136.173 142.802 136.665 142.528 C 137.157 142.255 137.677 142.091 138.251 142.091 Z M 138.251 147.286 C 138.798 147.286 139.29 147.095 139.7 146.685 C 140.083 146.302 140.302 145.81 140.302 145.235 C 140.302 144.689 140.083 144.196 139.7 143.786 C 139.29 143.403 138.798 143.185 138.251 143.185 C 137.677 143.185 137.185 143.403 136.802 143.786 C 136.392 144.196 136.2 144.689 136.2 145.235 C 136.2 145.81 136.392 146.302 136.802 146.685 C 137.185 147.095 137.677 147.286 138.251 147.286 Z M 142.271 141.954 C 142.271 141.763 142.189 141.599 142.052 141.435 C 141.888 141.298 141.724 141.216 141.532 141.216 C 141.313 141.216 141.149 141.298 141.013 141.435 C 140.849 141.599 140.794 141.763 140.794 141.954 C 140.794 142.173 140.849 142.337 141.013 142.474 C 141.149 142.638 141.313 142.692 141.532 142.692 C 141.724 142.692 141.888 142.638 142.024 142.474 C 142.161 142.337 142.243 142.173 142.271 141.954 Z M 144.349 142.692 C 144.349 143.212 144.376 144.06 144.376 145.235 C 144.376 146.439 144.349 147.286 144.321 147.806 C 144.294 148.325 144.212 148.763 144.103 149.146 C 143.939 149.61 143.665 150.021 143.337 150.349 C 143.009 150.677 142.599 150.923 142.161 151.087 C 141.778 151.224 141.313 151.306 140.794 151.333 C 140.274 151.36 139.427 151.36 138.251 151.36 C 137.048 151.36 136.2 151.36 135.681 151.333 C 135.161 151.306 134.724 151.224 134.341 151.06 C 133.876 150.923 133.466 150.677 133.138 150.349 C 132.81 150.021 132.563 149.61 132.399 149.146 C 132.263 148.763 132.181 148.325 132.153 147.806 C 132.126 147.286 132.126 146.439 132.126 145.235 C 132.126 144.06 132.126 143.212 132.153 142.692 C 132.181 142.173 132.263 141.708 132.399 141.325 C 132.563 140.888 132.81 140.478 133.138 140.15 C 133.466 139.821 133.876 139.548 134.341 139.384 C 134.724 139.275 135.161 139.192 135.681 139.165 C 136.2 139.138 137.048 139.11 138.251 139.11 C 139.427 139.11 140.274 139.138 140.794 139.165 C 141.313 139.192 141.778 139.275 142.161 139.384 C 142.599 139.548 143.009 139.821 143.337 140.15 C 143.665 140.478 143.939 140.888 144.103 141.325 C 144.212 141.708 144.294 142.173 144.349 142.692 Z M 143.036 148.845 C 143.146 148.544 143.2 148.052 143.255 147.368 C 143.255 146.985 143.282 146.411 143.282 145.673 L 143.282 144.798 C 143.282 144.06 143.255 143.485 143.255 143.103 C 143.2 142.419 143.146 141.927 143.036 141.626 C 142.817 141.079 142.407 140.669 141.86 140.45 C 141.56 140.341 141.067 140.286 140.384 140.232 C 139.974 140.232 139.399 140.204 138.689 140.204 L 137.813 140.204 C 137.075 140.204 136.501 140.232 136.118 140.232 C 135.435 140.286 134.942 140.341 134.642 140.45 C 134.067 140.669 133.685 141.079 133.466 141.626 C 133.356 141.927 133.274 142.419 133.247 143.103 C 133.22 143.513 133.22 144.087 133.22 144.798 L 133.22 145.673 C 133.22 146.411 133.22 146.985 133.247 147.368 C 133.274 148.052 133.356 148.544 133.466 148.845 C 133.685 149.419 134.095 149.802 134.642 150.021 C 134.942 150.13 135.435 150.212 136.118 150.239 C 136.501 150.267 137.075 150.267 137.813 150.267 L 138.689 150.267 C 139.427 150.267 140.001 150.267 140.384 150.239 C 141.067 150.212 141.56 150.13 141.86 150.021 C 142.407 149.802 142.817 149.392 143.036 148.845 Z" fill="white"/>
</svg>