<?xml version="1.0" encoding="utf-8"?>
<svg viewBox="24.898 63.029 48 48" xmlns="http://www.w3.org/2000/svg">
  <rect opacity="0.1" width="48" height="48" rx="24" fill="white" x="24.898" y="63.029"/>
  <path d="M 49.224 84.286 C 49.771 84.286 50.29 84.45 50.783 84.723 C 51.275 84.997 51.658 85.38 51.931 85.872 C 52.204 86.364 52.368 86.884 52.368 87.43 C 52.368 88.005 52.204 88.524 51.931 89.016 C 51.658 89.509 51.275 89.891 50.783 90.165 C 50.29 90.438 49.771 90.575 49.224 90.575 C 48.65 90.575 48.13 90.438 47.638 90.165 C 47.146 89.891 46.763 89.509 46.49 89.016 C 46.216 88.524 46.079 88.005 46.079 87.43 C 46.079 86.884 46.216 86.364 46.49 85.872 C 46.763 85.38 47.146 84.997 47.638 84.723 C 48.13 84.45 48.65 84.286 49.224 84.286 Z M 49.224 89.481 C 49.771 89.481 50.263 89.29 50.673 88.88 C 51.056 88.497 51.275 88.005 51.275 87.43 C 51.275 86.884 51.056 86.391 50.673 85.981 C 50.263 85.598 49.771 85.38 49.224 85.38 C 48.65 85.38 48.158 85.598 47.775 85.981 C 47.365 86.391 47.173 86.884 47.173 87.43 C 47.173 88.005 47.365 88.497 47.775 88.88 C 48.158 89.29 48.65 89.481 49.224 89.481 Z M 53.243 84.149 C 53.243 83.958 53.161 83.794 53.025 83.63 C 52.861 83.493 52.697 83.411 52.505 83.411 C 52.286 83.411 52.122 83.493 51.986 83.63 C 51.822 83.794 51.767 83.958 51.767 84.149 C 51.767 84.368 51.822 84.532 51.986 84.669 C 52.122 84.833 52.286 84.887 52.505 84.887 C 52.697 84.887 52.861 84.833 52.997 84.669 C 53.134 84.532 53.216 84.368 53.243 84.149 Z M 55.322 84.887 C 55.322 85.407 55.349 86.255 55.349 87.43 C 55.349 88.634 55.322 89.481 55.294 90.001 C 55.267 90.52 55.185 90.958 55.076 91.341 C 54.911 91.805 54.638 92.216 54.31 92.544 C 53.982 92.872 53.572 93.118 53.134 93.282 C 52.751 93.419 52.286 93.501 51.767 93.528 C 51.247 93.555 50.4 93.555 49.224 93.555 C 48.021 93.555 47.173 93.555 46.654 93.528 C 46.134 93.501 45.697 93.419 45.314 93.255 C 44.849 93.118 44.439 92.872 44.111 92.544 C 43.783 92.216 43.536 91.805 43.372 91.341 C 43.236 90.958 43.154 90.52 43.126 90.001 C 43.099 89.481 43.099 88.634 43.099 87.43 C 43.099 86.255 43.099 85.407 43.126 84.887 C 43.154 84.368 43.236 83.903 43.372 83.52 C 43.536 83.083 43.783 82.673 44.111 82.345 C 44.439 82.016 44.849 81.743 45.314 81.579 C 45.697 81.47 46.134 81.387 46.654 81.36 C 47.173 81.333 48.021 81.305 49.224 81.305 C 50.4 81.305 51.247 81.333 51.767 81.36 C 52.286 81.387 52.751 81.47 53.134 81.579 C 53.572 81.743 53.982 82.016 54.31 82.345 C 54.638 82.673 54.911 83.083 55.076 83.52 C 55.185 83.903 55.267 84.368 55.322 84.887 Z M 54.009 91.04 C 54.118 90.739 54.173 90.247 54.228 89.563 C 54.228 89.18 54.255 88.606 54.255 87.868 L 54.255 86.993 C 54.255 86.255 54.228 85.68 54.228 85.298 C 54.173 84.614 54.118 84.122 54.009 83.821 C 53.79 83.274 53.38 82.864 52.833 82.645 C 52.533 82.536 52.04 82.481 51.357 82.427 C 50.947 82.427 50.372 82.399 49.661 82.399 L 48.786 82.399 C 48.048 82.399 47.474 82.427 47.091 82.427 C 46.408 82.481 45.915 82.536 45.615 82.645 C 45.04 82.864 44.658 83.274 44.439 83.821 C 44.329 84.122 44.247 84.614 44.22 85.298 C 44.193 85.708 44.193 86.282 44.193 86.993 L 44.193 87.868 C 44.193 88.606 44.193 89.18 44.22 89.563 C 44.247 90.247 44.329 90.739 44.439 91.04 C 44.658 91.614 45.068 91.997 45.615 92.216 C 45.915 92.325 46.408 92.407 47.091 92.434 C 47.474 92.462 48.048 92.462 48.786 92.462 L 49.661 92.462 C 50.4 92.462 50.974 92.462 51.357 92.434 C 52.04 92.407 52.533 92.325 52.833 92.216 C 53.38 91.997 53.79 91.587 54.009 91.04 Z" fill="white"/>
</svg>