<?xml version="1.0" encoding="utf-8"?>
<svg viewBox="145.934 65.292 48 48" xmlns="http://www.w3.org/2000/svg">
  <rect opacity="0.1" x="145.934" width="48" height="48" rx="24" fill="white" y="65.292"/>
  <path d="M 176.485 87.198 C 177.032 86.788 177.524 86.296 177.934 85.694 C 177.387 85.941 176.84 86.105 176.293 86.159 C 176.895 85.777 177.332 85.257 177.551 84.573 C 176.977 84.902 176.375 85.148 175.719 85.257 C 175.446 84.984 175.118 84.765 174.762 84.601 C 174.407 84.437 174.024 84.355 173.614 84.355 C 173.094 84.355 172.629 84.491 172.192 84.737 C 171.754 85.011 171.399 85.366 171.153 85.804 C 170.879 86.241 170.77 86.734 170.77 87.226 C 170.77 87.444 170.77 87.663 170.825 87.882 C 169.649 87.827 168.555 87.554 167.516 87.007 C 166.477 86.487 165.629 85.777 164.918 84.874 C 164.645 85.339 164.508 85.831 164.508 86.323 C 164.508 86.816 164.618 87.28 164.864 87.691 C 165.082 88.128 165.411 88.456 165.793 88.73 C 165.329 88.73 164.891 88.593 164.508 88.347 L 164.508 88.402 C 164.508 89.085 164.727 89.687 165.164 90.206 C 165.602 90.753 166.149 91.081 166.805 91.218 C 166.532 91.273 166.286 91.3 166.039 91.3 C 165.875 91.3 165.684 91.3 165.52 91.273 C 165.684 91.847 166.012 92.312 166.504 92.694 C 166.996 93.077 167.543 93.241 168.2 93.241 C 167.133 94.062 165.93 94.472 164.618 94.472 C 164.344 94.472 164.125 94.472 163.934 94.444 C 165.246 95.319 166.723 95.73 168.336 95.73 C 170.004 95.73 171.481 95.319 172.793 94.444 C 173.969 93.679 174.899 92.667 175.555 91.355 C 176.184 90.152 176.512 88.866 176.512 87.554 C 176.512 87.39 176.485 87.28 176.485 87.198 Z" fill="white"/>
</svg>